<svg version="1.1" xmlns="http://www.w3.org/2000/svg" xmlns:xlink="http://www.w3.org/1999/xlink" width="94.52203" height="70.36576" viewBox="0,0,94.52203,70.36576"><g transform="translate(-200.29557,-152.43598)"><g data-paper-data="{&quot;isPaintingLayer&quot;:true}" fill-rule="nonzero" stroke-linejoin="miter" stroke-miterlimit="10" stroke-dasharray="" stroke-dashoffset="0" style="mix-blend-mode: normal"><g fill="#ffffff" stroke="#ffffff"><path d="M211.62575,201.00236c-2.6593,9.54934 -6.08186,16.93784 -7.64449,16.50268c-0.43172,-0.12024 -3.01388,-0.82507 -3.08569,-1.98369c-0.12367,-1.99519 2.60255,-5.33605 3.43017,-9.35449c0.43132,-2.09428 0.98188,-4.37257 1.64126,-6.74036c0.86366,-3.10133 1.80782,-5.97474 2.74263,-8.42627c1.94357,-5.09699 2.67794,-8.95464 3.73307,-8.66081c1.56262,0.43516 1.84235,9.11359 -0.81695,18.66293z" stroke-width="1.2" stroke-linecap="butt"/><g><path d="M212.19436,179.19369c0,-14.44651 11.71121,-26.15771 26.15771,-26.15771c14.44651,0 26.15772,11.71121 26.15772,26.15771c0,14.44651 -11.71121,26.15772 -26.15772,26.15772c-14.44651,0 -26.15771,-11.71121 -26.15771,-26.15772z" stroke-width="1.2" stroke-linecap="butt"/><path d="M214.85447,179.19369c0,-12.97737 10.52025,-23.4976 23.49762,-23.4976c12.97737,0 23.4976,10.52024 23.4976,23.49761c0,12.97737 -10.52023,23.49761 -23.4976,23.49761c-12.97737,0 -23.49761,-10.52023 -23.49761,-23.4976z" stroke-width="1.2" stroke-linecap="butt"/><path d="M269.23697,178.99584c0,2.77504 -1.12481,5.02465 -2.51233,5.02465c-1.38752,0 -2.51232,-2.24962 -2.51232,-5.02465c0,-2.77504 1.1248,-5.02464 2.51232,-5.02464c1.38752,0 2.51233,2.24961 2.51233,5.02464z" stroke-width="1.2" stroke-linecap="butt"/><path d="M238.01591,163.45554v-8.18147" stroke-width="1.2" stroke-linecap="round"/><path d="M252.04129,159.657l-4.67513,4.67512" stroke-width="1.2" stroke-linecap="round"/><path d="M259.05397,167.54627l-8.18147,2.62975" stroke-width="1.2" stroke-linecap="round"/><path d="M254.67104,179.23408h8.18147" stroke-width="1.2" stroke-linecap="round"/><path d="M253.21007,187.99994l4.67513,1.75317" stroke-width="1.2" stroke-linecap="round"/><path d="M247.65836,193.84384l3.50635,4.67513" stroke-width="1.2" stroke-linecap="round"/><path d="M238.60031,196.18141l-0.2922,6.42829" stroke-width="1.2" stroke-linecap="round"/><path d="M231.29541,195.01263l-4.09073,4.67513" stroke-width="1.2" stroke-linecap="round"/><path d="M215.51688,183.90921h6.1361" stroke-width="1.2" stroke-linecap="round"/><path d="M223.69833,173.97457l-7.01269,-2.62976" stroke-width="1.2" stroke-linecap="round"/><path d="M224.28273,159.07261l4.38293,6.7205" stroke-width="1.2" stroke-linecap="round"/><path d="M290.20036,176.77788c1.91419,5.82584 -11.39782,11.14132 -31.17498,17.63953c-19.77717,6.49821 -51.38688,16.10135 -53.30108,10.27551c-1.51227,-4.60253 10.00342,-8.41859 26.12402,-16.79154c4.11225,-1.62193 9.66402,-4.45082 13.81681,-5.8153c12.11517,-3.98071 24.50396,-7.15287 32.72484,-7.67407c5.19912,-0.32962 11.06878,0.10885 11.81038,2.36587z" stroke-width="1.2" stroke-linecap="butt"/><path d="M237.78067,200.08805c8.19788,-7.39154 16.81321,-11.98003 20.32418,-8.08604c3.3607,3.72731 -16.02475,21.57884 -16.37566,21.89523c-8.19788,7.39154 -9.80051,8.76587 -13.31149,4.87188c-3.51098,-3.894 1.1651,-11.28955 9.36298,-18.68108z" stroke-width="1.2" stroke-linecap="butt"/><path d="M261.38217,166.41925c8.19788,-7.39154 8.04735,-7.59709 11.55833,-3.7031c3.51099,3.89399 -0.28851,8.95198 -8.48639,16.34352c-4.73302,4.26746 -9.89736,8.37978 -14.09301,10.34425c-3.0715,1.43811 -5.62383,1.72515 -7.10776,0.07934c-2.54516,-2.82282 6.08914,-8.49142 10.63506,-15.89927c2.58672,-2.44179 5.23865,-5.13144 7.49376,-7.16474z" stroke-width="1.2" stroke-linecap="butt"/><path d="M285.35155,177.9192c0,1.21031 -5.8611,6.28221 -8.76586,6.28221c-2.90474,0 -3.21414,-5.0719 -3.21414,-6.28221c0,-1.21031 3.52354,-1.60707 6.4283,-1.60707c2.90476,0 5.5517,0.39676 5.5517,1.60707z" stroke-width="1.2" stroke-linecap="butt"/><path d="M240.1398,181.02865l-1.28136,0.2508l-7.27082,-25.1288z" stroke-width="0.5" stroke-linecap="butt"/><path d="M237.94654,180.98237l-0.92034,-1.91505l11.89713,-7.25195z" stroke-width="0.5" stroke-linecap="butt"/></g></g><g fill="#ffffff" stroke="#ffffff"><path d="M215.46026,202.31273c-2.6593,9.54934 -6.08186,16.93784 -7.64449,16.50268c-0.43172,-0.12024 -3.01388,-0.82507 -3.08569,-1.98369c-0.12367,-1.99519 2.60255,-5.33605 3.43017,-9.35449c0.43132,-2.09428 0.98188,-4.37257 1.64126,-6.74036c0.86366,-3.10133 1.80782,-5.97474 2.74263,-8.42627c1.94357,-5.09699 2.67794,-8.95464 3.73307,-8.66081c1.56262,0.43516 1.84235,9.11359 -0.81695,18.66293z" stroke-width="1.2" stroke-linecap="butt"/><g><path d="M216.02887,180.50406c0,-14.44651 11.71121,-26.15771 26.15771,-26.15771c14.44651,0 26.15772,11.71121 26.15772,26.15771c0,14.44651 -11.71121,26.15772 -26.15772,26.15772c-14.44651,0 -26.15771,-11.71121 -26.15771,-26.15772z" stroke-width="1.2" stroke-linecap="butt"/><path d="M218.68898,180.50406c0,-12.97737 10.52025,-23.4976 23.49762,-23.4976c12.97737,0 23.4976,10.52024 23.4976,23.49761c0,12.97737 -10.52023,23.49761 -23.4976,23.49761c-12.97737,0 -23.49761,-10.52023 -23.49761,-23.4976z" stroke-width="1.2" stroke-linecap="butt"/><path d="M273.07148,180.30621c0,2.77504 -1.12481,5.02465 -2.51233,5.02465c-1.38752,0 -2.51232,-2.24962 -2.51232,-5.02465c0,-2.77504 1.1248,-5.02464 2.51232,-5.02464c1.38752,0 2.51233,2.24961 2.51233,5.02464z" stroke-width="1.2" stroke-linecap="butt"/><path d="M241.85042,156.58444v8.18147" stroke-width="1.2" stroke-linecap="round"/><path d="M255.8758,160.96737l-4.67513,4.67512" stroke-width="1.2" stroke-linecap="round"/><path d="M254.70701,171.48639l8.18147,-2.62975" stroke-width="1.2" stroke-linecap="round"/><path d="M266.68702,180.54445h-8.18147" stroke-width="1.2" stroke-linecap="round"/><path d="M257.04458,189.31031l4.67513,1.75317" stroke-width="1.2" stroke-linecap="round"/><path d="M251.49287,195.15421l3.50635,4.67513" stroke-width="1.2" stroke-linecap="round"/><path d="M242.14262,203.92007l0.2922,-6.42829" stroke-width="1.2" stroke-linecap="round"/><path d="M231.03919,200.99813l4.09073,-4.67513" stroke-width="1.2" stroke-linecap="round"/><path d="M219.35139,185.21958h6.1361" stroke-width="1.2" stroke-linecap="round"/><path d="M220.52015,172.65518l7.01269,2.62976" stroke-width="1.2" stroke-linecap="round"/><path d="M232.50017,167.10347l-4.38293,-6.7205" stroke-width="1.2" stroke-linecap="round"/><path d="M294.03487,178.08825c1.9142,5.82584 -11.39781,11.14132 -31.17498,17.63953c-19.77717,6.49821 -51.38687,16.10135 -53.30108,10.27551c-1.51227,-4.60253 10.00342,-8.41859 26.12402,-16.79154c4.11225,-1.62193 9.66402,-4.45082 13.81681,-5.8153c12.11517,-3.98071 24.50396,-7.15287 32.72484,-7.67407c5.19912,-0.32962 11.06878,0.10885 11.81038,2.36587z" stroke-width="1.2" stroke-linecap="butt"/><path d="M241.61518,201.39842c8.19788,-7.39154 16.81321,-11.98003 20.32418,-8.08604c3.3607,3.72731 -16.02475,21.57884 -16.37566,21.89523c-8.19788,7.39154 -9.80051,8.76587 -13.31149,4.87188c-3.51098,-3.894 1.1651,-11.28955 9.36298,-18.68108z" stroke-width="1.2" stroke-linecap="butt"/><path d="M265.21668,167.72962c8.19788,-7.39154 8.04735,-7.59709 11.55833,-3.7031c3.51099,3.89399 -0.28851,8.95198 -8.48639,16.34352c-4.73302,4.26746 -9.89736,8.37978 -14.09301,10.34425c-3.07149,1.43811 -5.62383,1.72515 -7.10776,0.07934c-2.54516,-2.82282 6.08914,-8.49142 10.63506,-15.89927c2.58672,-2.44179 5.23865,-5.13144 7.49376,-7.16474z" stroke-width="1.2" stroke-linecap="butt"/><path d="M289.18606,179.22957c0,1.21031 -5.8611,6.28221 -8.76586,6.28221c-2.90474,0 -3.21414,-5.0719 -3.21414,-6.28221c0,-1.21031 3.52354,-1.60707 6.4283,-1.60707c2.90476,0 5.5517,0.39676 5.5517,1.60707z" stroke-width="1.2" stroke-linecap="butt"/><path d="M243.97431,182.33902l-1.28136,0.2508l-7.27082,-25.1288z" stroke-width="0.5" stroke-linecap="butt"/><path d="M241.78105,182.29274l-0.92034,-1.91505l11.89713,-7.25195z" stroke-width="0.5" stroke-linecap="butt"/></g></g><g><path d="M214.26787,200.99741c-2.56038,9.19412 -5.85563,16.30777 -7.36012,15.8888c-0.41566,-0.11576 -2.90176,-0.79438 -2.9709,-1.9099c-0.11907,-1.92097 2.50574,-5.13755 3.30257,-9.00651c0.41528,-2.01637 0.94535,-4.20992 1.5802,-6.48963c0.83154,-2.98596 1.74058,-5.75249 2.64061,-8.11282c1.87127,-4.90739 2.57832,-8.62154 3.5942,-8.33864c1.50449,0.41897 1.77382,8.77457 -0.78656,17.96869z" fill="#000000" stroke="#001026" stroke-width="1.2" stroke-linecap="butt"/><g><path d="M214.81532,180c0,-13.90911 11.27557,-25.18468 25.18468,-25.18468c13.90911,0 25.18468,11.27557 25.18468,25.18468c0,13.90911 -11.27557,25.18468 -25.18468,25.18468c-13.90911,0 -25.18468,-11.27556 -25.18468,-25.18468z" fill="#000000" stroke="#001026" stroke-width="1.2" stroke-linecap="butt"/><path d="M217.37648,180c0,-12.49463 10.1289,-22.62352 22.62353,-22.62352c12.49463,0 22.62352,10.1289 22.62352,22.62353c0,12.49463 -10.12889,22.62353 -22.62352,22.62353c-12.49463,0 -22.62352,-10.12889 -22.62352,-22.62352z" fill="#ffffff" stroke="#001026" stroke-width="1.2" stroke-linecap="butt"/><path d="M269.73601,179.80951c0,2.67181 -1.08297,4.83774 -2.41887,4.83774c-1.33591,0 -2.41886,-2.16593 -2.41886,-4.83774c0,-2.67181 1.08296,-4.83773 2.41886,-4.83773c1.33591,0 2.41887,2.16593 2.41887,4.83773z" fill="#ffffff" stroke="#001026" stroke-width="1.2" stroke-linecap="butt"/><path d="M239.67634,156.97016v7.87713" fill="none" stroke="#001026" stroke-width="1.2" stroke-linecap="round"/><path d="M253.17999,161.19005l-4.50122,4.50121" fill="none" stroke="#001026" stroke-width="1.2" stroke-linecap="round"/><path d="M252.05468,171.31778l7.87713,-2.53193" fill="none" stroke="#001026" stroke-width="1.2" stroke-linecap="round"/><path d="M263.58905,180.03889h-7.87713" fill="none" stroke="#001026" stroke-width="1.2" stroke-linecap="round"/><path d="M254.30529,188.47867l4.50122,1.68796" fill="none" stroke="#001026" stroke-width="1.2" stroke-linecap="round"/><path d="M248.9601,194.10518l3.37591,4.50122" fill="none" stroke="#001026" stroke-width="1.2" stroke-linecap="round"/><path d="M240.239,196.3558l-0.28133,6.18917" fill="none" stroke="#001026" stroke-width="1.2" stroke-linecap="round"/><path d="M233.20584,195.23049l-3.93856,4.50122" fill="none" stroke="#001026" stroke-width="1.2" stroke-linecap="round"/><path d="M218.01424,184.54011h5.90785" fill="none" stroke="#001026" stroke-width="1.2" stroke-linecap="round"/><path d="M225.89136,174.97503l-6.75182,-2.53194" fill="none" stroke="#001026" stroke-width="1.2" stroke-linecap="round"/><path d="M226.45402,160.6274l4.21989,6.4705" fill="none" stroke="#001026" stroke-width="1.2" stroke-linecap="round"/><path d="M289.91959,177.67406c1.84299,5.60912 -10.97383,10.72688 -30.01531,16.98336c-19.04148,6.25648 -49.47534,15.50239 -51.31834,9.89327c-1.45601,-4.43132 9.63131,-8.10543 25.15224,-16.16692c3.95928,-1.56159 9.30453,-4.28525 13.30284,-5.59898c11.6645,-3.83263 23.59244,-6.88679 31.50751,-7.3886c5.00572,-0.31736 10.65704,0.10481 11.37105,2.27787z" fill="#000000" stroke="#001026" stroke-width="1.2" stroke-linecap="butt"/><path d="M239.44985,200.11711c7.89293,-7.11658 16.18777,-11.53438 19.56814,-7.78524c3.23568,3.58866 -15.42865,20.77613 -15.7665,21.08075c-7.89293,7.11658 -9.43595,8.43979 -12.81632,4.69065c-3.38037,-3.74915 1.12176,-10.86959 9.01469,-17.98617z" fill="#000000" stroke="#001026" stroke-width="1.2" stroke-linecap="butt"/><path d="M262.1734,167.70076c7.89293,-7.11658 7.74799,-7.31449 11.12837,-3.56535c3.38038,3.74914 -0.27777,8.61898 -8.1707,15.73556c-4.55695,4.10872 -9.52919,8.06806 -13.56877,9.95945c-2.95724,1.38461 -5.41463,1.66098 -6.84336,0.07639c-2.45049,-2.71782 5.86263,-8.17555 10.23945,-15.30784c2.49049,-2.35096 5.04378,-4.94056 7.215,-6.89822z" fill="#000000" stroke="#001026" stroke-width="1.2" stroke-linecap="butt"/><path d="M285.25115,178.77292c0,1.16529 -5.64308,6.04851 -8.43978,6.04851c-2.79669,0 -3.09458,-4.88322 -3.09458,-6.04851c0,-1.16529 3.39247,-1.54729 6.18917,-1.54729c2.7967,0 5.34519,0.382 5.34519,1.54729z" fill="#ffffff" stroke="#001026" stroke-width="1.2" stroke-linecap="butt"/><path d="M241.72122,181.7667l-1.2337,0.24147l-7.00035,-24.19404z" fill="#000000" stroke="#000000" stroke-width="0.5" stroke-linecap="butt"/><path d="M239.60955,181.72214l-0.88611,-1.84381l11.45457,-6.98218z" fill="#000000" stroke="#000000" stroke-width="0.5" stroke-linecap="butt"/></g></g></g></g></svg>