<svg version="1.1" xmlns="http://www.w3.org/2000/svg" xmlns:xlink="http://www.w3.org/1999/xlink" width="87.35867" height="66.53125" viewBox="0,0,87.35867,66.53125"><g transform="translate(-203.33685,-154.21532)"><g data-paper-data="{&quot;isPaintingLayer&quot;:true}" fill-rule="nonzero" stroke-linejoin="miter" stroke-miterlimit="10" stroke-dasharray="" stroke-dashoffset="0" style="mix-blend-mode: normal"><path d="M214.26787,200.99741c-2.56038,9.19412 -5.85563,16.30777 -7.36012,15.8888c-0.41566,-0.11576 -2.90176,-0.79438 -2.9709,-1.9099c-0.11907,-1.92097 2.50574,-5.13755 3.30257,-9.00651c0.41528,-2.01637 0.94535,-4.20992 1.5802,-6.48963c0.83154,-2.98596 1.74058,-5.75249 2.64061,-8.11282c1.87127,-4.90739 2.57832,-8.62154 3.5942,-8.33864c1.50449,0.41897 1.77382,8.77457 -0.78656,17.96869z" fill="#000000" stroke="#001026" stroke-width="1.2" stroke-linecap="butt"/><g><path d="M214.81532,180c0,-13.90911 11.27557,-25.18468 25.18468,-25.18468c13.90911,0 25.18468,11.27557 25.18468,25.18468c0,13.90911 -11.27557,25.18468 -25.18468,25.18468c-13.90911,0 -25.18468,-11.27556 -25.18468,-25.18468z" fill="#000000" stroke="#001026" stroke-width="1.2" stroke-linecap="butt"/><path d="M217.37648,180c0,-12.49463 10.1289,-22.62352 22.62353,-22.62352c12.49463,0 22.62352,10.1289 22.62352,22.62353c0,12.49463 -10.12889,22.62353 -22.62352,22.62353c-12.49463,0 -22.62352,-10.12889 -22.62352,-22.62352z" fill="#ffffff" stroke="#001026" stroke-width="1.2" stroke-linecap="butt"/><path d="M269.73601,179.80951c0,2.67181 -1.08297,4.83774 -2.41887,4.83774c-1.33591,0 -2.41886,-2.16593 -2.41886,-4.83774c0,-2.67181 1.08296,-4.83773 2.41886,-4.83773c1.33591,0 2.41887,2.16593 2.41887,4.83773z" fill="#ffffff" stroke="#001026" stroke-width="1.2" stroke-linecap="butt"/><path d="M239.67634,156.97016v7.87713" fill="none" stroke="#001026" stroke-width="1.2" stroke-linecap="round"/><path d="M253.17999,161.19005l-4.50122,4.50121" fill="none" stroke="#001026" stroke-width="1.2" stroke-linecap="round"/><path d="M259.93181,168.78585l-7.87713,2.53193" fill="none" stroke="#001026" stroke-width="1.2" stroke-linecap="round"/><path d="M263.58905,180.03889h-7.87713" fill="none" stroke="#001026" stroke-width="1.2" stroke-linecap="round"/><path d="M258.80651,190.16663l-4.50122,-1.68796" fill="none" stroke="#001026" stroke-width="1.2" stroke-linecap="round"/><path d="M252.33601,198.6064l-3.37591,-4.50122" fill="none" stroke="#001026" stroke-width="1.2" stroke-linecap="round"/><path d="M239.95767,202.54497l0.28133,-6.18917" fill="none" stroke="#001026" stroke-width="1.2" stroke-linecap="round"/><path d="M229.26728,199.73171l3.93856,-4.50122" fill="none" stroke="#001026" stroke-width="1.2" stroke-linecap="round"/><path d="M218.01424,184.54011h5.90785" fill="none" stroke="#001026" stroke-width="1.2" stroke-linecap="round"/><path d="M219.13954,172.44309l6.75182,2.53194" fill="none" stroke="#001026" stroke-width="1.2" stroke-linecap="round"/><path d="M226.45402,160.6274l4.21989,6.4705" fill="none" stroke="#001026" stroke-width="1.2" stroke-linecap="round"/><path d="M289.91959,177.67406c1.84299,5.60912 -10.97383,10.72688 -30.01531,16.98336c-19.04148,6.25648 -49.47534,15.50239 -51.31834,9.89327c-1.45601,-4.43132 9.63131,-8.10543 25.15224,-16.16692c3.95928,-1.56159 9.30453,-4.28525 13.30284,-5.59898c11.6645,-3.83263 23.59244,-6.88679 31.50751,-7.3886c5.00572,-0.31736 10.65704,0.10481 11.37105,2.27787z" fill="#000000" stroke="#001026" stroke-width="1.2" stroke-linecap="butt"/><path d="M239.44986,200.1171c-7.89293,7.11658 -12.39506,14.23702 -9.01469,17.98617c3.38037,3.74914 4.92339,2.42593 12.81632,-4.69065c0.33785,-0.30462 19.00218,-17.49209 15.7665,-21.08075c-3.38037,-3.74914 -11.67521,0.66866 -19.56814,7.78524z" fill="#000000" stroke="#001026" stroke-width="1.2" stroke-linecap="butt"/><path d="M262.17339,167.70075c-2.17122,1.95766 -4.72451,4.54726 -7.215,6.89822c-4.37682,7.13229 -12.68994,12.59002 -10.23945,15.30784c1.42873,1.58459 3.88612,1.30822 6.84336,-0.07639c4.03958,-1.89139 9.01182,-5.85073 13.56877,-9.95945c7.89293,-7.11658 11.55108,-11.98642 8.1707,-15.73556c-3.38038,-3.74914 -3.23544,-3.55123 -11.12837,3.56535z" fill="#000000" stroke="#001026" stroke-width="1.2" stroke-linecap="butt"/><path d="M285.25115,178.77292c0,1.16529 -5.64308,6.04851 -8.43978,6.04851c-2.79669,0 -3.09458,-4.88322 -3.09458,-6.04851c0,-1.16529 3.39247,-1.54729 6.18917,-1.54729c2.7967,0 5.34519,0.382 5.34519,1.54729z" fill="#ffffff" stroke="#001026" stroke-width="1.2" stroke-linecap="butt"/><path d="M241.72122,181.7667l-1.2337,0.24147l-7.00035,-24.19404z" fill="#000000" stroke="#000000" stroke-width="0.5" stroke-linecap="butt"/><path d="M239.60955,181.72214l-0.88611,-1.84381l11.45457,-6.98218z" fill="#000000" stroke="#000000" stroke-width="0.5" stroke-linecap="butt"/></g></g></g></svg>